<?xml version="1.0" encoding="UTF-8"?><svg xmlns="http://www.w3.org/2000/svg" width="557" height="557" viewBox="0 0 557 557"><path fill="#E9168C" fill-rule="nonzero" d="M258.944 401.518C208.471 380.106 118.02 369.9 58.651 323.475v1C58.451 449.145 159.397 550 283.531 550c23.787 0 46.675-3.602 67.964-10.406-9.695-48.627-33.982-113.062-92.65-138.076h.1zM470.231 7c11.994 96.753-17.59 130.772-45.176 142.078-38.679-31.217-87.753-50.027-141.324-50.027-54.97 0-105.444 20.01-144.523 52.729C109.824 143.575 73.244 112.758 86.437 7c0 0-102.246 54.63-21.19 227.426 10.995 11.006 24.788 20.01 42.278 26.714 111.94 41.623 262.86 71.34 270.855 268.149 77.559-35.72 130.93-114.063 130.93-204.714 0-31.017-6.196-61.033-17.99-88.048C573.276 62.43 470.33 7.4 470.33 7.4l-.1-.4z"/></svg>
